# xmcd
#
# Track frame offsets:
#	150
#	16374
#	33796
#	51316
#	71683
#	93119
#	111952
#	127970
#	143360
#	159923
#	177862
#	195940
#	209102
#	229510
#	247736
#
# Disc length: 3560 seconds
#
# Revision: 1
# Processed by: cddbd v1.5.2PL0 Copyright (c) Steve Scherf et al.
# Submitted via: audiograbber 1.83.01
#
DISCID=b80de60f
DTITLE=Various Artist - CBCDG60018
DYEAR=2008
DGENRE=Karaoke
TTITLE0=McCoy, Neil - Shake, The
TTITLE1=Raye, Collin - What The Heart Wants
TTITLE2=Tucker, Tanya - Ridin' Out The Heartache
TTITLE3=Montgomery, John Michael - How Was I To Know
TTITLE4=Cochran, Anita - Daddy Can You See Me
TTITLE5=Jackson, Alan - There Goes
TTITLE6=Gill, Vince - You And You Alone
TTITLE7=Clark, Terri - Just The Same
TTITLE8=Kersh, David - Day In, Day Out
TTITLE9=Diamond Rio - How Your Love Makes Me Feel
TTITLE10=Carter, Deana - How Do I Get There
TTITLE11=Murphy, David Lee - All Lit Up In Love
TTITLE12=Cyrus, Billy Ray - It's All The Same To Me
TTITLE13=Diffe, Joe - Something Like This
TTITLE14=Tritt, Travis and White, Lari - Helping Me Get Over You
EXTD=
EXTT0=
EXTT1=
EXTT2=
EXTT3=
EXTT4=
EXTT5=
EXTT6=
EXTT7=
EXTT8=
EXTT9=
EXTT10=
EXTT11=
EXTT12=
EXTT13=
EXTT14=
PLAYORDER=
